# xmcd
#
# Track frame offsets: 
#        150
#        25875
#        58750
#        82077
#        131598
#
# Disc length: 2025 seconds
#
# Revision: 0
# Processed by: cddbd v1.5.2PL0 Copyright (c) Steve Scherf et al.
# Submitted via: ExactAudioCopy v0.95b4
#
DISCID=3f07e705
DTITLE=Etta James - 1989-03-13 St. Paul, Minn. Disc 2
DYEAR=1989
DGENRE=Blues
TTITLE0=01 Take It To The Limit (Starts Over)
TTITLE1=02 Come On Mama
TTITLE2=03 Shakey Ground
TTITLE3=04 Sugar On The Floor
TTITLE4=05 I Got The Will
EXTD=
EXTT0=
EXTT1=
EXTT2=
EXTT3=
EXTT4=
PLAYORDER=
